<svg xmlns="http://www.w3.org/2000/svg" viewBox="0 0 176.34 104.36"><defs><style>.cls-1{fill:#222323;}.cls-2{fill:#fff;}.cls-3{fill:#7c7c7c;}</style></defs><g id="Слой_2" data-name="Слой 2"><g id="Слой_1-2" data-name="Слой 1"><polygon class="cls-1" points="122.04 44.16 122.04 101.62 42.62 104.36 33.02 71.66 93.28 71.66 93.28 0.03 122.04 44.16"/><path class="cls-2" d="M0,71.66V0H32.14S65.19,2.4,65.19,35.83,32.6,71.66,32.6,71.66Z"/><rect class="cls-2" x="67.57" width="25.7" height="71.66"/><polygon class="cls-2" points="176.34 0.01 147.23 44.47 147.23 71.66 122.04 71.66 122.04 44.16 93.28 0.03 93.27 0.01 122.04 0.01 134.64 18.93 147.4 0.01 176.34 0.01"/><polygon class="cls-3" points="65.19 99.66 53.28 74.38 93.28 74.38 107.91 98.05 65.19 99.66"/><polygon class="cls-3" points="43.51 90.74 39.7 80.03 53.28 79.62 57.96 89.94 43.51 90.74"/></g></g></svg>